<svg width="316" height="517" viewBox="0 0 316 517" fill="none" xmlns="http://www.w3.org/2000/svg">
<path d="M0 0.00688304L101.688 0.00653097V97.3472C101.688 129.794 101.087 164.766 99.8851 202.26V203.341H100.967C109.381 187.478 132.218 146.621 169.481 80.7637C188.713 47.3551 198.329 22.1164 198.329 5.05307V0.00568599H302.543V2.52933C302.543 35.6976 288.96 71.868 261.796 111.049L199.773 200.818L260.714 330.247H315.526V345.749H253.865V346.831C263.721 367.982 270.091 380.72 272.976 385.048H284.155V431.915H300.021V516.279C282.232 516.76 269.13 517 260.714 517H235.473C226.578 517 214.437 516.76 199.052 516.279V459.677H176.335V385.048H163.353L149.651 345.749H252.783V330.247H158.306C158.306 329.045 152.777 311.62 141.719 277.972H140.637C134.867 289.028 123.328 306.453 106.019 330.247H149.65V345.749H101.692V370.986H95.5615V489.237H101.692V515.194C101.692 516.396 101.091 516.997 99.8889 516.997H1.80468C0.602802 516.997 0.0016991 516.396 0.0016991 515.194V474.456H46.1581V457.151H0.0016991V0L0 0.00688304ZM263.236 303.931H268.645C270.088 303.931 271.771 308.618 273.694 317.992C274.655 317.992 276.458 313.305 279.103 303.931H286.675V325.923C286.675 327.125 286.194 327.726 285.233 327.726H281.627V313.665H280.906C280.906 314.627 279.463 319.313 276.578 327.726H273.694C272.011 327.726 270.328 323.64 268.645 315.468H267.563V325.923C267.563 327.124 267.082 327.725 266.121 327.725H263.236C262.274 327.725 261.793 327.124 261.793 325.923V305.733C261.793 304.532 262.274 303.931 263.236 303.931L263.236 303.931ZM41.8295 330.25V345.752H100.969C100.969 343.829 102.411 338.662 105.296 330.25H41.8291H41.8295ZM177.415 463.282H182.464C183.185 463.282 184.988 465.205 187.873 469.051C190.036 465.205 191.479 463.282 192.2 463.282H197.248V464.003L190.397 474.458C191.599 474.699 194.243 478.424 198.33 485.634H191.118L187.872 478.784C184.266 483.351 182.223 485.634 181.742 485.634H176.333C180.42 478.424 183.064 474.699 184.266 474.458L177.414 464.003V463.282H177.415Z" fill="#FF9F1C"/>
</svg>
