<svg width="1343" height="517" viewBox="0 0 1343 517" fill="none" xmlns="http://www.w3.org/2000/svg">
<g clip-path="url(#clip0_1_4)">
<path d="M0 0.00688304L101.688 0.00653097V97.3472C101.688 129.794 101.087 164.766 99.8851 202.26V203.341H100.967C109.381 187.478 132.218 146.621 169.481 80.7637C188.713 47.3551 198.329 22.1164 198.329 5.05307V0.00568599H302.543V2.52933C302.543 35.6976 288.96 71.868 261.796 111.049L199.773 200.818L260.714 330.247H315.526V345.749H253.865V346.831C263.721 367.982 270.091 380.72 272.976 385.048H284.155V431.915H300.021V516.279C282.232 516.76 269.13 517 260.714 517H235.473C226.578 517 214.437 516.76 199.052 516.279V459.677H176.335V385.048H163.353L149.651 345.749H252.783V330.247H158.306C158.306 329.045 152.777 311.62 141.719 277.971H140.637C134.867 289.028 123.328 306.453 106.019 330.247H149.65V345.749H101.692V370.986H95.5615V489.237H101.692V515.194C101.692 516.396 101.091 516.997 99.8889 516.997H1.80468C0.602802 516.997 0.0016991 516.396 0.0016991 515.194V474.456H46.1581V457.151H0.0016991V0L0 0.00688304ZM263.236 303.931H268.645C270.088 303.931 271.771 308.618 273.694 317.992C274.655 317.992 276.458 313.305 279.103 303.931H286.675V325.923C286.675 327.125 286.194 327.725 285.233 327.725H281.627V313.665H280.906C280.906 314.627 279.463 319.313 276.578 327.725H273.694C272.011 327.725 270.328 323.64 268.645 315.468H267.563V325.923C267.563 327.124 267.082 327.725 266.121 327.725H263.236C262.274 327.725 261.793 327.124 261.793 325.923V305.733C261.793 304.532 262.274 303.931 263.236 303.931L263.236 303.931ZM41.8295 330.25V345.752H100.969C100.969 343.829 102.411 338.662 105.296 330.25H41.8291H41.8295ZM177.415 463.282H182.464C183.185 463.282 184.988 465.205 187.873 469.051C190.036 465.205 191.479 463.282 192.2 463.282H197.248V464.003L190.397 474.458C191.599 474.699 194.243 478.424 198.33 485.634H191.118L187.872 478.784C184.266 483.351 182.223 485.634 181.742 485.634H176.333C180.42 478.424 183.064 474.699 184.266 474.458L177.414 464.003V463.282H177.415Z" fill="#FF9F1C"/>
<path d="M498.632 252.94H502.529L515.636 197.864H542.205L526.795 257.013L542.028 326.256H513.865L503.769 273.305H498.632V326.256H472.417V197.864H498.632V252.94ZM549.29 197.864H574.974V326.256H549.29V197.864ZM585.602 197.864H610.045L623.153 249.398V197.864H649.545V326.256H623.153L609.337 272.597V326.256H585.602V197.864ZM660.172 213.448C660.172 208.726 661.442 204.948 663.981 202.114C666.519 199.281 670.328 197.864 675.405 197.864H712.071L716.499 221.772H688.336C686.801 221.772 686.033 222.598 686.033 224.251V300.4C686.033 302.053 686.801 302.88 688.336 302.88H700.026V252.231H725.001V326.256H680.188C672.748 326.256 667.552 324.721 664.601 321.651C661.649 318.582 660.172 313.505 660.172 306.421V213.448ZM760.604 220.355V303.765H772.649C773.711 303.765 774.39 303.558 774.686 303.145C774.981 302.732 775.128 302.053 775.128 301.109V222.834C775.128 221.182 774.361 220.355 772.826 220.355H760.604V220.355ZM800.635 306.421C800.635 313.505 799.159 318.581 796.207 321.651C793.254 324.721 788.059 326.256 780.619 326.256H735.097V197.864H785.402C790.479 197.864 794.287 199.281 796.827 202.114C799.366 204.948 800.635 208.726 800.635 213.448V306.421ZM839.426 220.355C837.891 220.355 837.123 221.181 837.123 222.834V301.109C837.123 302.053 837.271 302.732 837.566 303.145C837.861 303.558 838.54 303.765 839.603 303.765H849.345C850.408 303.765 851.087 303.558 851.382 303.145C851.677 302.732 851.825 302.053 851.825 301.109V222.834C851.825 221.181 851.057 220.355 849.522 220.355H839.426ZM877.862 308.015C877.862 310.495 877.567 312.826 876.977 315.01C876.386 317.195 875.383 319.113 873.966 320.766C872.549 322.419 870.659 323.747 868.298 324.75C865.936 325.754 862.984 326.256 859.441 326.256H829.684C826.141 326.256 823.189 325.754 820.827 324.75C818.466 323.747 816.576 322.419 815.159 320.766C813.742 319.113 812.738 317.195 812.148 315.01C811.558 312.826 811.262 310.495 811.262 308.015V214.511C811.262 209.434 812.65 205.391 815.425 202.38C818.2 199.37 822.599 197.864 828.621 197.864H860.504C866.526 197.864 870.925 199.37 873.7 202.38C876.475 205.391 877.862 209.434 877.862 214.511V308.015ZM913.465 265.69V326.256H888.49V197.864H915.591L929.584 252.054L943.577 197.864H970.855V326.256H945.88V265.69L929.584 317.047L913.465 265.69ZM1010 326.256L1005.39 302.348H1033.03C1035.03 302.348 1036.04 301.463 1036.04 299.692V276.316C1036.04 274.545 1035.68 273.482 1034.98 273.128C1034.27 272.774 1033.03 272.597 1031.26 272.597H1017.97C1016.08 272.597 1014.28 272.449 1012.57 272.154C1010.86 271.859 1009.32 271.18 1007.96 270.118C1006.6 269.055 1005.54 267.579 1004.77 265.69C1004.01 263.801 1003.62 261.263 1003.62 258.075V214.511C1003.62 209.434 1005.01 205.391 1007.79 202.38C1010.56 199.37 1014.96 197.864 1020.98 197.864H1056.41L1060.84 221.772H1031.79C1029.66 221.772 1028.6 222.716 1028.6 224.605V247.981C1028.6 249.28 1028.92 250.165 1029.57 250.638C1030.22 251.11 1031.2 251.346 1032.49 251.346H1048.61C1052.75 251.346 1055.91 252.32 1058.09 254.268C1060.27 256.216 1061.37 259.61 1061.37 264.451V306.776C1061.37 313.859 1059.92 318.877 1057.03 321.828C1054.13 324.78 1049.03 326.256 1041.71 326.256H1010ZM1120.88 197.864L1127.26 221.772H1110.08V326.256H1083.86V221.772H1066.68L1073.41 197.864H1120.88ZM1162.51 220.355C1160.97 220.355 1160.2 221.181 1160.2 222.834V301.109C1160.2 302.053 1160.35 302.732 1160.65 303.145C1160.94 303.558 1161.62 303.765 1162.68 303.765H1172.43C1173.49 303.765 1174.17 303.558 1174.46 303.145C1174.76 302.732 1174.91 302.053 1174.91 301.109V222.834C1174.91 221.181 1174.14 220.355 1172.6 220.355H1162.51ZM1200.94 308.015C1200.94 310.495 1200.65 312.826 1200.06 315.01C1199.47 317.195 1198.46 319.113 1197.05 320.766C1195.63 322.419 1193.74 323.747 1191.38 324.75C1189.02 325.754 1186.06 326.256 1182.52 326.256H1152.76C1149.22 326.256 1146.27 325.754 1143.91 324.75C1141.55 323.747 1139.66 322.419 1138.24 320.766C1136.82 319.113 1135.82 317.195 1135.23 315.01C1134.64 312.826 1134.34 310.495 1134.34 308.015V214.511C1134.34 209.434 1135.73 205.391 1138.51 202.38C1141.28 199.37 1145.68 197.864 1151.7 197.864H1183.58C1189.61 197.864 1194.01 199.37 1196.78 202.38C1199.56 205.391 1200.94 209.434 1200.94 214.511V308.015ZM1237.25 220.355V264.628H1249.83C1251.48 264.628 1252.31 263.742 1252.31 261.971V223.011C1252.31 221.24 1251.48 220.355 1249.83 220.355H1237.25ZM1277.64 274.014C1277.64 276.847 1276.67 279.445 1274.72 281.806C1272.77 284.167 1269.91 285.348 1266.13 285.348L1279.59 326.256H1253.02L1240.62 285.348H1237.25V326.256H1211.57V197.864H1260.28C1266.3 197.864 1270.7 199.37 1273.48 202.38C1276.25 205.391 1277.64 209.434 1277.64 214.511V274.014ZM1288.62 197.864H1338.57L1343 221.772H1315.01V252.231H1336.27V274.368H1315.01V302.348H1341.94L1337.51 326.256H1288.62V197.864Z" fill="white"/>
</g>
<defs>
<clipPath id="clip0_1_4">
<rect width="1343" height="517" fill="white"/>
</clipPath>
</defs>
</svg>
