<svg width="871" height="130" viewBox="0 0 871 130" fill="none" xmlns="http://www.w3.org/2000/svg">
<path d="M26.6319 55.9398H30.5287L43.6362 0.864227H70.2053L54.7952 60.0129L70.0282 129.256H41.8649L31.7686 76.3053H26.6319V129.256H0.416992V0.864227H26.6319V55.9398V55.9398ZM77.2904 0.864227H102.974V129.256H77.2904V0.864227ZM113.602 0.864227H138.045L151.153 52.3979V0.864227H177.545V129.256H151.153L137.337 75.597V129.256H113.602V0.864227V0.864227ZM188.172 16.4483C188.172 11.7258 189.442 7.9479 191.981 5.11443C194.519 2.28096 198.328 0.864227 203.405 0.864227H240.071L244.499 24.7716H216.336C214.801 24.7716 214.033 25.5981 214.033 27.2509V103.4C214.033 105.053 214.801 105.88 216.336 105.88H228.026V55.2314H253.001V129.256H208.188C200.748 129.256 195.552 127.721 192.601 124.651C189.649 121.582 188.172 116.505 188.172 109.421V16.4483V16.4483ZM288.604 23.3549V106.765H300.649C301.711 106.765 302.39 106.558 302.686 106.145C302.981 105.732 303.128 105.053 303.128 104.109V25.8343C303.128 24.1815 302.361 23.3551 300.826 23.3551H288.604V23.3549ZM328.635 109.421C328.635 116.505 327.159 121.581 324.207 124.651C321.254 127.721 316.059 129.256 308.619 129.256H263.097V0.864227H313.402C318.479 0.864227 322.287 2.28096 324.826 5.11443C327.366 7.9479 328.635 11.7258 328.635 16.4483V109.421ZM367.426 23.3549C365.891 23.3549 365.123 24.1814 365.123 25.8342V104.109C365.123 105.053 365.271 105.732 365.566 106.145C365.861 106.558 366.54 106.765 367.603 106.765H377.345C378.408 106.765 379.087 106.558 379.382 106.145C379.677 105.732 379.825 105.053 379.825 104.109V25.8342C379.825 24.1814 379.057 23.3549 377.522 23.3549H367.426V23.3549ZM405.862 111.015C405.862 113.495 405.567 115.826 404.977 118.01C404.386 120.195 403.383 122.113 401.966 123.766C400.549 125.419 398.659 126.747 396.298 127.75C393.936 128.754 390.984 129.256 387.441 129.256H357.684C354.141 129.256 351.189 128.754 348.827 127.75C346.466 126.747 344.576 125.419 343.159 123.766C341.742 122.113 340.738 120.195 340.148 118.01C339.558 115.826 339.262 113.495 339.262 111.015V17.5109C339.262 12.4342 340.65 8.39063 343.425 5.38007C346.2 2.36951 350.599 0.864227 356.621 0.864227H388.504C394.526 0.864227 398.925 2.36951 401.7 5.38007C404.475 8.39063 405.862 12.4342 405.862 17.5109V111.015V111.015ZM441.465 68.6904V129.256H416.49V0.864227H443.591L457.584 55.0543L471.577 0.864227H498.855V129.256H473.88V68.6904L457.584 120.047L441.465 68.6904ZM538 129.256L533.395 105.348H561.027C563.034 105.348 564.038 104.463 564.038 102.692V79.3159C564.038 77.545 563.684 76.4824 562.975 76.1282C562.267 75.7741 561.027 75.597 559.255 75.597H545.971C544.081 75.597 542.281 75.4494 540.568 75.1542C538.856 74.859 537.321 74.1802 535.963 73.1177C534.605 72.0551 533.542 70.5794 532.774 68.6904C532.007 66.8013 531.623 64.2631 531.623 61.0754V17.5109C531.623 12.4342 533.011 8.39063 535.786 5.38007C538.561 2.36951 542.959 0.864227 548.982 0.864227H584.407L588.835 24.7716H559.786C557.661 24.7716 556.598 25.7161 556.598 27.6051V50.9812C556.598 52.2798 556.923 53.1653 557.572 53.6376C558.222 54.1099 559.196 54.3459 560.495 54.3459H576.614C580.747 54.3459 583.905 55.32 586.09 57.268C588.275 59.216 589.367 62.6103 589.367 67.4507V109.776C589.367 116.859 587.92 121.877 585.027 124.828C582.134 127.78 577.027 129.256 569.706 129.256H538V129.256ZM648.882 0.864227L655.258 24.7716H638.077V129.256H611.862V24.7716H594.681L601.411 0.864227H648.882V0.864227ZM690.507 23.3549C688.972 23.3549 688.204 24.1814 688.204 25.8342V104.109C688.204 105.053 688.352 105.732 688.647 106.145C688.942 106.558 689.621 106.765 690.684 106.765H700.426C701.489 106.765 702.168 106.558 702.463 106.145C702.758 105.732 702.906 105.053 702.906 104.109V25.8342C702.906 24.1814 702.138 23.3549 700.603 23.3549H690.507V23.3549ZM728.943 111.015C728.943 113.495 728.648 115.826 728.058 118.01C727.468 120.195 726.464 122.113 725.047 123.766C723.63 125.419 721.74 126.747 719.379 127.75C717.017 128.754 714.065 129.256 710.522 129.256H680.765C677.222 129.256 674.27 128.754 671.908 127.75C669.547 126.747 667.657 125.419 666.24 123.766C664.823 122.113 663.819 120.195 663.229 118.01C662.639 115.826 662.343 113.495 662.343 111.015V17.5109C662.343 12.4342 663.731 8.39063 666.506 5.38007C669.281 2.36951 673.68 0.864227 679.702 0.864227H711.585C717.607 0.864227 722.006 2.36951 724.781 5.38007C727.556 8.39063 728.943 12.4342 728.943 17.5109V111.015V111.015ZM765.255 23.3549V67.6278H777.831C779.484 67.6278 780.311 66.7424 780.311 64.9715V26.0113C780.311 24.2403 779.484 23.3549 777.831 23.3549H765.255V23.3549ZM805.64 77.0137C805.64 79.8472 804.666 82.4446 802.717 84.8057C800.769 87.1669 797.905 88.3476 794.127 88.3476L807.588 129.256H781.019L768.62 88.3476H765.255V129.256H739.571V0.864227H788.281C794.304 0.864227 798.703 2.36951 801.477 5.38007C804.252 8.39063 805.64 12.4342 805.64 17.5109V77.0137V77.0137ZM816.622 0.864227H866.572L871 24.7716H843.014V55.2314H864.269V77.3679H843.014V105.348H869.937L865.509 129.256H816.622V0.864227V0.864227Z" fill="white"/>
</svg>
